<svg xmlns:sketch="http://www.bohemiancoding.com/sketch/ns" xmlns="http://www.w3.org/2000/svg" xmlns:xlink="http://www.w3.org/1999/xlink" version="1.1" x="0px" y="0px" viewBox="0 0 64 56" enable-background="new 0 0 64 56" xml:space="preserve"><style>.style0{fill:	#FFFFFF;}</style><title>Slice 1</title><desc>Created with Sketch.</desc><g sketch:type="MSPage"><path sketch:type="MSShapeGroup" d="M45.9 52c-4.3 0.7-7.1-3.4-7.1-3.4l-1.4 6.6h-3 c0 0-2.7-10-4.6-11.6c-1.9-1.7-4.8-2.1-4.8-2.1s-3.9-0.3-6.4-2.8c-2.5-2.5-0.2-5.6-0.2-5.6s-3.2 0.2-9.6-1.2 c-6.4-1.4-4.5-5.5-4.5-5.5s-1.7 0.3-3.1-1.5c-1-1.3-1.7-4.3 0.1-7.9c1.6-3.2 4.5-4.3 4.5-4.3s-1.1-1.3 1.2-3.2 c1.2-1 3.2-0.9 3.2-0.9s0.5-2.2 3.6-3.5c3.5-1.6 5.8-0.3 5.8-0.3s0.9-2 3.6-3c2.7-0.9 5.4 0.6 5.4 0.6s1.8-1.7 5.2-1.7 c3.4 0 4.6 1.7 4.6 1.7s2-1 4.5-0.2c2.3 0.8 3 3.1 3 3.1s1.7-1.2 4-0.3c2.3 0.9 3.3 3.4 3.3 3.4s1.6-0.2 3.2 1.2 c1.2 1.1 0.8 3 0.8 3s2 0.7 3.2 3c1.1 2.2-0.5 4.1-0.5 4.1s3.3 2.4 3.7 8.8c0.6 7.7-4.4 9.2-4.4 9.2s1 2.5-0.7 5.1 c-2.3 3.6-7.1 1.5-7.1 1.5S50.8 51.2 45.9 52z" class="style0"/></g></svg>